<svg xmlns="http://www.w3.org/2000/svg" width="1146" height="1560" viewBox="0 0 1146 1560" font-family="-apple-system,BlinkMacSystemFont,'Segoe UI','Noto Color Emoji',Roboto,Helvetica,Arial,sans-serif">
<rect width="1146" height="1560" fill="#ffffff"/>
<path d="M 191.7 896.2 C 245.8 896.2 245.8 307.5 300.0 307.5" fill="none" stroke="#2b6cb0" stroke-width="1.6" opacity="0.55"/>
<path d="M 421.2 307.5 C 520.6 307.5 520.6 90.0 620.0 90.0" fill="none" stroke="#2b6cb0" stroke-width="1.6" opacity="0.55"/>
<path d="M 700.7 90.0 C 790.4 90.0 790.4 30.0 880.0 30.0" fill="none" stroke="#2b6cb0" stroke-width="1.6" opacity="0.55"/>
<path d="M 700.7 90.0 C 790.4 90.0 790.4 60.0 880.0 60.0" fill="none" stroke="#2b6cb0" stroke-width="1.6" opacity="0.55"/>
<path d="M 700.7 90.0 C 790.4 90.0 790.4 90.0 880.0 90.0" fill="none" stroke="#2b6cb0" stroke-width="1.6" opacity="0.55"/>
<path d="M 700.7 90.0 C 790.4 90.0 790.4 120.0 880.0 120.0" fill="none" stroke="#2b6cb0" stroke-width="1.6" opacity="0.55"/>
<path d="M 700.7 90.0 C 790.4 90.0 790.4 150.0 880.0 150.0" fill="none" stroke="#2b6cb0" stroke-width="1.6" opacity="0.55"/>
<path d="M 421.2 307.5 C 520.6 307.5 520.6 240.0 620.0 240.0" fill="none" stroke="#2b6cb0" stroke-width="1.6" opacity="0.55"/>
<path d="M 781.7 240.0 C 830.9 240.0 830.9 180.0 880.0 180.0" fill="none" stroke="#2b6cb0" stroke-width="1.6" opacity="0.55"/>
<path d="M 781.7 240.0 C 830.9 240.0 830.9 210.0 880.0 210.0" fill="none" stroke="#2b6cb0" stroke-width="1.6" opacity="0.55"/>
<path d="M 781.7 240.0 C 830.9 240.0 830.9 240.0 880.0 240.0" fill="none" stroke="#2b6cb0" stroke-width="1.6" opacity="0.55"/>
<path d="M 781.7 240.0 C 830.9 240.0 830.9 270.0 880.0 270.0" fill="none" stroke="#2b6cb0" stroke-width="1.6" opacity="0.55"/>
<path d="M 781.7 240.0 C 830.9 240.0 830.9 300.0 880.0 300.0" fill="none" stroke="#2b6cb0" stroke-width="1.6" opacity="0.55"/>
<path d="M 421.2 307.5 C 520.6 307.5 520.6 375.0 620.0 375.0" fill="none" stroke="#2b6cb0" stroke-width="1.6" opacity="0.55"/>
<path d="M 789.8 375.0 C 834.9 375.0 834.9 330.0 880.0 330.0" fill="none" stroke="#2b6cb0" stroke-width="1.6" opacity="0.55"/>
<path d="M 789.8 375.0 C 834.9 375.0 834.9 360.0 880.0 360.0" fill="none" stroke="#2b6cb0" stroke-width="1.6" opacity="0.55"/>
<path d="M 789.8 375.0 C 834.9 375.0 834.9 390.0 880.0 390.0" fill="none" stroke="#2b6cb0" stroke-width="1.6" opacity="0.55"/>
<path d="M 789.8 375.0 C 834.9 375.0 834.9 420.0 880.0 420.0" fill="none" stroke="#2b6cb0" stroke-width="1.6" opacity="0.55"/>
<path d="M 421.2 307.5 C 520.6 307.5 520.6 525.0 620.0 525.0" fill="none" stroke="#2b6cb0" stroke-width="1.6" opacity="0.55"/>
<path d="M 725.0 525.0 C 802.5 525.0 802.5 450.0 880.0 450.0" fill="none" stroke="#2b6cb0" stroke-width="1.6" opacity="0.55"/>
<path d="M 725.0 525.0 C 802.5 525.0 802.5 480.0 880.0 480.0" fill="none" stroke="#2b6cb0" stroke-width="1.6" opacity="0.55"/>
<path d="M 725.0 525.0 C 802.5 525.0 802.5 510.0 880.0 510.0" fill="none" stroke="#2b6cb0" stroke-width="1.6" opacity="0.55"/>
<path d="M 725.0 525.0 C 802.5 525.0 802.5 540.0 880.0 540.0" fill="none" stroke="#2b6cb0" stroke-width="1.6" opacity="0.55"/>
<path d="M 725.0 525.0 C 802.5 525.0 802.5 570.0 880.0 570.0" fill="none" stroke="#2b6cb0" stroke-width="1.6" opacity="0.55"/>
<path d="M 725.0 525.0 C 802.5 525.0 802.5 600.0 880.0 600.0" fill="none" stroke="#2b6cb0" stroke-width="1.6" opacity="0.55"/>
<path d="M 191.7 896.2 C 245.8 896.2 245.8 765.0 300.0 765.0" fill="none" stroke="#2f855a" stroke-width="1.6" opacity="0.55"/>
<path d="M 413.1 765.0 C 516.5 765.0 516.5 630.0 620.0 630.0" fill="none" stroke="#2f855a" stroke-width="1.6" opacity="0.55"/>
<path d="M 413.1 765.0 C 516.5 765.0 516.5 660.0 620.0 660.0" fill="none" stroke="#2f855a" stroke-width="1.6" opacity="0.55"/>
<path d="M 413.1 765.0 C 516.5 765.0 516.5 690.0 620.0 690.0" fill="none" stroke="#2f855a" stroke-width="1.6" opacity="0.55"/>
<path d="M 413.1 765.0 C 516.5 765.0 516.5 720.0 620.0 720.0" fill="none" stroke="#2f855a" stroke-width="1.6" opacity="0.55"/>
<path d="M 413.1 765.0 C 516.5 765.0 516.5 750.0 620.0 750.0" fill="none" stroke="#2f855a" stroke-width="1.6" opacity="0.55"/>
<path d="M 725.0 750.0 C 802.5 750.0 802.5 750.0 880.0 750.0" fill="none" stroke="#2f855a" stroke-width="1.6" opacity="0.55"/>
<path d="M 413.1 765.0 C 516.5 765.0 516.5 780.0 620.0 780.0" fill="none" stroke="#2f855a" stroke-width="1.6" opacity="0.55"/>
<path d="M 413.1 765.0 C 516.5 765.0 516.5 810.0 620.0 810.0" fill="none" stroke="#2f855a" stroke-width="1.6" opacity="0.55"/>
<path d="M 413.1 765.0 C 516.5 765.0 516.5 840.0 620.0 840.0" fill="none" stroke="#2f855a" stroke-width="1.6" opacity="0.55"/>
<path d="M 413.1 765.0 C 516.5 765.0 516.5 870.0 620.0 870.0" fill="none" stroke="#2f855a" stroke-width="1.6" opacity="0.55"/>
<path d="M 413.1 765.0 C 516.5 765.0 516.5 900.0 620.0 900.0" fill="none" stroke="#2f855a" stroke-width="1.6" opacity="0.55"/>
<path d="M 191.7 896.2 C 245.8 896.2 245.8 1020.0 300.0 1020.0" fill="none" stroke="#805ad5" stroke-width="1.6" opacity="0.55"/>
<path d="M 575.1 1020.0 C 597.5 1020.0 597.5 930.0 620.0 930.0" fill="none" stroke="#805ad5" stroke-width="1.6" opacity="0.55"/>
<path d="M 575.1 1020.0 C 597.5 1020.0 597.5 960.0 620.0 960.0" fill="none" stroke="#805ad5" stroke-width="1.6" opacity="0.55"/>
<path d="M 575.1 1020.0 C 597.5 1020.0 597.5 990.0 620.0 990.0" fill="none" stroke="#805ad5" stroke-width="1.6" opacity="0.55"/>
<path d="M 575.1 1020.0 C 597.5 1020.0 597.5 1020.0 620.0 1020.0" fill="none" stroke="#805ad5" stroke-width="1.6" opacity="0.55"/>
<path d="M 575.1 1020.0 C 597.5 1020.0 597.5 1050.0 620.0 1050.0" fill="none" stroke="#805ad5" stroke-width="1.6" opacity="0.55"/>
<path d="M 575.1 1020.0 C 597.5 1020.0 597.5 1080.0 620.0 1080.0" fill="none" stroke="#805ad5" stroke-width="1.6" opacity="0.55"/>
<path d="M 575.1 1020.0 C 597.5 1020.0 597.5 1110.0 620.0 1110.0" fill="none" stroke="#805ad5" stroke-width="1.6" opacity="0.55"/>
<path d="M 191.7 896.2 C 245.8 896.2 245.8 1215.0 300.0 1215.0" fill="none" stroke="#c53030" stroke-width="1.6" opacity="0.55"/>
<path d="M 558.9 1215.0 C 589.5 1215.0 589.5 1140.0 620.0 1140.0" fill="none" stroke="#c53030" stroke-width="1.6" opacity="0.55"/>
<path d="M 558.9 1215.0 C 589.5 1215.0 589.5 1170.0 620.0 1170.0" fill="none" stroke="#c53030" stroke-width="1.6" opacity="0.55"/>
<path d="M 558.9 1215.0 C 589.5 1215.0 589.5 1200.0 620.0 1200.0" fill="none" stroke="#c53030" stroke-width="1.6" opacity="0.55"/>
<path d="M 558.9 1215.0 C 589.5 1215.0 589.5 1230.0 620.0 1230.0" fill="none" stroke="#c53030" stroke-width="1.6" opacity="0.55"/>
<path d="M 558.9 1215.0 C 589.5 1215.0 589.5 1260.0 620.0 1260.0" fill="none" stroke="#c53030" stroke-width="1.6" opacity="0.55"/>
<path d="M 558.9 1215.0 C 589.5 1215.0 589.5 1290.0 620.0 1290.0" fill="none" stroke="#c53030" stroke-width="1.6" opacity="0.55"/>
<path d="M 191.7 896.2 C 245.8 896.2 245.8 1365.0 300.0 1365.0" fill="none" stroke="#0987a0" stroke-width="1.6" opacity="0.55"/>
<path d="M 510.3 1365.0 C 565.1 1365.0 565.1 1320.0 620.0 1320.0" fill="none" stroke="#0987a0" stroke-width="1.6" opacity="0.55"/>
<path d="M 510.3 1365.0 C 565.1 1365.0 565.1 1350.0 620.0 1350.0" fill="none" stroke="#0987a0" stroke-width="1.6" opacity="0.55"/>
<path d="M 510.3 1365.0 C 565.1 1365.0 565.1 1380.0 620.0 1380.0" fill="none" stroke="#0987a0" stroke-width="1.6" opacity="0.55"/>
<path d="M 510.3 1365.0 C 565.1 1365.0 565.1 1410.0 620.0 1410.0" fill="none" stroke="#0987a0" stroke-width="1.6" opacity="0.55"/>
<path d="M 191.7 896.2 C 245.8 896.2 245.8 1485.0 300.0 1485.0" fill="none" stroke="#b7791f" stroke-width="1.6" opacity="0.55"/>
<path d="M 405.0 1485.0 C 512.5 1485.0 512.5 1440.0 620.0 1440.0" fill="none" stroke="#b7791f" stroke-width="1.6" opacity="0.55"/>
<path d="M 405.0 1485.0 C 512.5 1485.0 512.5 1470.0 620.0 1470.0" fill="none" stroke="#b7791f" stroke-width="1.6" opacity="0.55"/>
<path d="M 405.0 1485.0 C 512.5 1485.0 512.5 1500.0 620.0 1500.0" fill="none" stroke="#b7791f" stroke-width="1.6" opacity="0.55"/>
<path d="M 405.0 1485.0 C 512.5 1485.0 512.5 1530.0 620.0 1530.0" fill="none" stroke="#b7791f" stroke-width="1.6" opacity="0.55"/>
<circle cx="885.0" cy="30.0" r="3" fill="#2b6cb0"/><text x="894.0" y="34.0" font-size="13.5" fill="#2d3748">Browse &amp; search directory</text>
<circle cx="885.0" cy="60.0" r="3" fill="#2b6cb0"/><text x="894.0" y="64.0" font-size="13.5" fill="#2d3748">Scheme detail</text>
<circle cx="885.0" cy="90.0" r="3" fill="#2b6cb0"/><text x="894.0" y="94.0" font-size="13.5" fill="#2d3748">Sources &amp; references</text>
<circle cx="885.0" cy="120.0" r="3" fill="#2b6cb0"/><text x="894.0" y="124.0" font-size="13.5" fill="#2d3748">“My schemes”</text>
<circle cx="885.0" cy="150.0" r="3" fill="#2b6cb0"/><text x="894.0" y="154.0" font-size="13.5" fill="#2d3748">Eligibility dispute</text>
<rect x="620.0" y="78.0" width="80.7" height="24" rx="10" fill="#2b6cb0" opacity="0.16"/><text x="632.0" y="95.0" font-size="13.5" font-weight="600" fill="#2b6cb0">Schemes</text>
<circle cx="885.0" cy="180.0" r="3" fill="#2b6cb0"/><text x="894.0" y="184.0" font-size="13.5" fill="#2d3748">Sign up / log in</text>
<circle cx="885.0" cy="210.0" r="3" fill="#2b6cb0"/><text x="894.0" y="214.0" font-size="13.5" fill="#2d3748">One-time profile</text>
<circle cx="885.0" cy="240.0" r="3" fill="#2b6cb0"/><text x="894.0" y="244.0" font-size="13.5" fill="#2d3748">Edit profile (approval)</text>
<circle cx="885.0" cy="270.0" r="3" fill="#2b6cb0"/><text x="894.0" y="274.0" font-size="13.5" fill="#2d3748">Change own password</text>
<circle cx="885.0" cy="300.0" r="3" fill="#2b6cb0"/><text x="894.0" y="304.0" font-size="13.5" fill="#2d3748">Share profile (WhatsApp)</text>
<rect x="620.0" y="228.0" width="161.7" height="24" rx="10" fill="#2b6cb0" opacity="0.16"/><text x="632.0" y="245.0" font-size="13.5" font-weight="600" fill="#2b6cb0">Account &amp; profile</text>
<circle cx="885.0" cy="330.0" r="3" fill="#2b6cb0"/><text x="894.0" y="334.0" font-size="13.5" fill="#2d3748">Upload many at once</text>
<circle cx="885.0" cy="360.0" r="3" fill="#2b6cb0"/><text x="894.0" y="364.0" font-size="13.5" fill="#2d3748">Admin approval</text>
<circle cx="885.0" cy="390.0" r="3" fill="#2b6cb0"/><text x="894.0" y="394.0" font-size="13.5" fill="#2d3748">View / download</text>
<circle cx="885.0" cy="420.0" r="3" fill="#2b6cb0"/><text x="894.0" y="424.0" font-size="13.5" fill="#2d3748">WhatsApp share</text>
<rect x="620.0" y="363.0" width="169.8" height="24" rx="10" fill="#2b6cb0" opacity="0.16"/><text x="632.0" y="380.0" font-size="13.5" font-weight="600" fill="#2b6cb0">Documents (locker)</text>
<circle cx="885.0" cy="450.0" r="3" fill="#2b6cb0"/><text x="894.0" y="454.0" font-size="13.5" fill="#2d3748">File a complaint</text>
<circle cx="885.0" cy="480.0" r="3" fill="#2b6cb0"/><text x="894.0" y="484.0" font-size="13.5" fill="#2d3748">Public board (anonymous)</text>
<circle cx="885.0" cy="510.0" r="3" fill="#2b6cb0"/><text x="894.0" y="514.0" font-size="13.5" fill="#2d3748">Track status</text>
<circle cx="885.0" cy="540.0" r="3" fill="#2b6cb0"/><text x="894.0" y="544.0" font-size="13.5" fill="#2d3748">Withdraw</text>
<circle cx="885.0" cy="570.0" r="3" fill="#2b6cb0"/><text x="894.0" y="574.0" font-size="13.5" fill="#2d3748">Status notifications</text>
<circle cx="885.0" cy="600.0" r="3" fill="#2b6cb0"/><text x="894.0" y="604.0" font-size="13.5" fill="#2d3748">Who’s responsible</text>
<rect x="620.0" y="513.0" width="105.0" height="24" rx="10" fill="#2b6cb0" opacity="0.16"/><text x="632.0" y="530.0" font-size="13.5" font-weight="600" fill="#2b6cb0">Complaints</text>
<rect x="300.0" y="295.5" width="121.2" height="24" rx="12" fill="#2b6cb0"/><text x="312.0" y="312.5" font-size="13.5" font-weight="700" fill="#ffffff">👤 Residents</text>
<circle cx="625.0" cy="630.0" r="3" fill="#2f855a"/><text x="634.0" y="634.0" font-size="13.5" fill="#2d3748">Dashboard</text>
<circle cx="625.0" cy="660.0" r="3" fill="#2f855a"/><text x="634.0" y="664.0" font-size="13.5" fill="#2d3748">Schemes (add/edit/delete)</text>
<circle cx="625.0" cy="690.0" r="3" fill="#2f855a"/><text x="634.0" y="694.0" font-size="13.5" fill="#2d3748">Change requests</text>
<circle cx="625.0" cy="720.0" r="3" fill="#2f855a"/><text x="634.0" y="724.0" font-size="13.5" fill="#2d3748">Document approvals</text>
<circle cx="885.0" cy="750.0" r="3" fill="#2f855a"/><text x="894.0" y="754.0" font-size="13.5" fill="#2d3748">Ward analytics</text>
<rect x="620.0" y="738.0" width="105.0" height="24" rx="10" fill="#2f855a" opacity="0.16"/><text x="632.0" y="755.0" font-size="13.5" font-weight="600" fill="#2f855a">Complaints</text>
<circle cx="625.0" cy="780.0" r="3" fill="#2f855a"/><text x="634.0" y="784.0" font-size="13.5" fill="#2d3748">Officials directory</text>
<circle cx="625.0" cy="810.0" r="3" fill="#2f855a"/><text x="634.0" y="814.0" font-size="13.5" fill="#2d3748">Users &amp; roles</text>
<circle cx="625.0" cy="840.0" r="3" fill="#2f855a"/><text x="634.0" y="844.0" font-size="13.5" fill="#2d3748">Data (CSV import/export)</text>
<circle cx="625.0" cy="870.0" r="3" fill="#2f855a"/><text x="634.0" y="874.0" font-size="13.5" fill="#2d3748">Activity log</text>
<circle cx="625.0" cy="900.0" r="3" fill="#2f855a"/><text x="634.0" y="904.0" font-size="13.5" fill="#2d3748">Help / tour</text>
<rect x="300.0" y="753.0" width="113.1" height="24" rx="12" fill="#2f855a"/><text x="312.0" y="770.0" font-size="13.5" font-weight="700" fill="#ffffff">🛠️ Admins</text>
<circle cx="625.0" cy="930.0" r="3" fill="#805ad5"/><text x="634.0" y="934.0" font-size="13.5" fill="#2d3748">Roles (user &lt; admin &lt; superadmin)</text>
<circle cx="625.0" cy="960.0" r="3" fill="#805ad5"/><text x="634.0" y="964.0" font-size="13.5" fill="#2d3748">Bootstrap admin from .env</text>
<circle cx="625.0" cy="990.0" r="3" fill="#805ad5"/><text x="634.0" y="994.0" font-size="13.5" fill="#2d3748">Approval policy (per-action)</text>
<circle cx="625.0" cy="1020.0" r="3" fill="#805ad5"/><text x="634.0" y="1024.0" font-size="13.5" fill="#2d3748">Deferred execution</text>
<circle cx="625.0" cy="1050.0" r="3" fill="#805ad5"/><text x="634.0" y="1054.0" font-size="13.5" fill="#2d3748">Approvals queue (N approvers)</text>
<circle cx="625.0" cy="1080.0" r="3" fill="#805ad5"/><text x="634.0" y="1084.0" font-size="13.5" fill="#2d3748">Superadmin override</text>
<circle cx="625.0" cy="1110.0" r="3" fill="#805ad5"/><text x="634.0" y="1114.0" font-size="13.5" fill="#2d3748">Wired actions</text>
<rect x="300.0" y="1008.0" width="275.1" height="24" rx="12" fill="#805ad5"/><text x="312.0" y="1025.0" font-size="13.5" font-weight="700" fill="#ffffff">👑 Superadmin &amp; approval engine</text>
<circle cx="625.0" cy="1140.0" r="3" fill="#c53030"/><text x="634.0" y="1144.0" font-size="13.5" fill="#2d3748">Rate limiting / lockout</text>
<circle cx="625.0" cy="1170.0" r="3" fill="#c53030"/><text x="634.0" y="1174.0" font-size="13.5" fill="#2d3748">Security headers</text>
<circle cx="625.0" cy="1200.0" r="3" fill="#c53030"/><text x="634.0" y="1204.0" font-size="13.5" fill="#2d3748">Session cookies</text>
<circle cx="625.0" cy="1230.0" r="3" fill="#c53030"/><text x="634.0" y="1234.0" font-size="13.5" fill="#2d3748">Hardening</text>
<circle cx="625.0" cy="1260.0" r="3" fill="#c53030"/><text x="634.0" y="1264.0" font-size="13.5" fill="#2d3748">Access control</text>
<circle cx="625.0" cy="1290.0" r="3" fill="#c53030"/><text x="634.0" y="1294.0" font-size="13.5" fill="#2d3748">serve-prod.sh</text>
<rect x="300.0" y="1203.0" width="258.9" height="24" rx="12" fill="#c53030"/><text x="312.0" y="1220.0" font-size="13.5" font-weight="700" fill="#ffffff">🔒 Security (internet-facing)</text>
<circle cx="625.0" cy="1320.0" r="3" fill="#0987a0"/><text x="634.0" y="1324.0" font-size="13.5" fill="#2d3748">Per-village instance</text>
<circle cx="625.0" cy="1350.0" r="3" fill="#0987a0"/><text x="634.0" y="1354.0" font-size="13.5" fill="#2d3748">Branding from .env</text>
<circle cx="625.0" cy="1380.0" r="3" fill="#0987a0"/><text x="634.0" y="1384.0" font-size="13.5" fill="#2d3748">One-click start</text>
<circle cx="625.0" cy="1410.0" r="3" fill="#0987a0"/><text x="634.0" y="1414.0" font-size="13.5" fill="#2d3748">Production launcher</text>
<rect x="300.0" y="1353.0" width="210.3" height="24" rx="12" fill="#0987a0"/><text x="312.0" y="1370.0" font-size="13.5" font-weight="700" fill="#ffffff">🌐 White-label &amp; deploy</text>
<circle cx="625.0" cy="1440.0" r="3" fill="#b7791f"/><text x="634.0" y="1444.0" font-size="13.5" fill="#2d3748">Security checks</text>
<circle cx="625.0" cy="1470.0" r="3" fill="#b7791f"/><text x="634.0" y="1474.0" font-size="13.5" fill="#2d3748">Functional checks</text>
<circle cx="625.0" cy="1500.0" r="3" fill="#b7791f"/><text x="634.0" y="1504.0" font-size="13.5" fill="#2d3748">API e2e checks</text>
<circle cx="625.0" cy="1530.0" r="3" fill="#b7791f"/><text x="634.0" y="1534.0" font-size="13.5" fill="#2d3748">~336 checks</text>
<rect x="300.0" y="1473.0" width="105.0" height="24" rx="12" fill="#b7791f"/><text x="312.0" y="1490.0" font-size="13.5" font-weight="700" fill="#ffffff">🧪 Quality</text>
<rect x="30.0" y="884.2" width="161.7" height="24" rx="12" fill="#1a202c"/><text x="110.8" y="901.2" text-anchor="middle" font-size="16" font-weight="700" fill="#ffffff">barloni-gram-seva</text>
</svg>